<svg xmlns="http://www.w3.org/2000/svg" version="1.1" xmlns:xlink="http://www.w3.org/1999/xlink" xmlns:svgjs="http://svgjs.dev/svgjs" width="2000" height="363" viewBox="0 0 2000 363"><g transform="matrix(1,0,0,1,-1.2121212121212466,0.6571685999278998)"><svg viewBox="0 0 396 72" data-background-color="#ffffff" preserveAspectRatio="xMidYMid meet" height="363" width="2000" xmlns="http://www.w3.org/2000/svg" xmlns:xlink="http://www.w3.org/1999/xlink"><g id="tight-bounds" transform="matrix(1,0,0,1,0.2400000000000091,-0.13034749089479192)"><svg viewBox="0 0 395.52 72.26069498178956" height="72.26069498178956" width="395.52"><g><svg viewBox="0 0 501.5234495573495 91.62730839067191" height="72.26069498178956" width="395.52"><g><rect width="5.979048646926954" height="79.5606151004387" x="84.37244110171325" y="6.033346645116609" fill="#3e373d" opacity="1" stroke-width="0" stroke="transparent" fill-opacity="1" class="rect-qz-0" data-fill-palette-color="primary" rx="1%" id="qz-0" data-palette-color="#3e373d"></rect></g><g transform="matrix(1,0,0,1,106.00344955734951,12.663397903486498)"><svg viewBox="0 0 395.52 66.30051258369892" height="66.30051258369892" width="395.52"><g id="textblocktransform"><svg viewBox="0 0 395.52 66.30051258369892" height="66.30051258369892" width="395.52" id="textblock"><g><svg viewBox="0 0 395.52 66.30051258369892" height="66.30051258369892" width="395.52"><g transform="matrix(1,0,0,1,0,0)"><svg width="395.52" viewBox="2.8 -35.85 216.53 36.300000000000004" height="66.30051258369892" data-palette-color="#3e373d"><path d="M2.85-33.95L2.85-33.95Q3.85-33.9 5.28-33.85 6.7-33.8 8.05-33.8L8.05-33.8Q9.25-33.8 10.45-33.83 11.65-33.85 12.85-33.88 14.05-33.9 15.2-33.9L15.2-33.9Q18.1-33.9 20.5-33.3 22.9-32.7 24.38-31.13 25.85-29.55 25.85-26.6L25.85-26.6Q25.85-23.4 23.9-21.13 21.95-18.85 18.6-18.35L18.6-18.35Q21.25-18.2 23.48-17.38 25.7-16.55 27.05-14.75 28.4-12.95 28.4-9.85L28.4-9.85Q28.4-7.15 27.18-4.9 25.95-2.65 23.3-1.33 20.65 0 16.4 0L16.4 0Q15 0 13.08 0 11.15 0 9.15 0.03 7.15 0.05 5.45 0.08 3.75 0.1 2.8 0.15L2.8 0.15Q2.8-0.55 2.85-1.07 2.9-1.6 3.05-2L3.05-2Q4.4-2.1 5.15-2.5 5.9-2.9 6.23-3.93 6.55-4.95 6.55-6.9L6.55-6.9 6.55-27.45Q6.55-29.15 6.25-30.05 5.95-30.95 5.2-31.35 4.45-31.75 3.1-31.8L3.1-31.8Q2.95-32.2 2.9-32.77 2.85-33.35 2.85-33.95ZM10.55-31.3L11.25-32.05 11.25-6.9Q11.25-4.85 11.63-3.83 12-2.8 13.03-2.48 14.05-2.15 15.9-2.15L15.9-2.15Q19.6-2.15 21.33-4.03 23.05-5.9 23.05-9.15L23.05-9.15Q23.05-11.5 22.1-12.98 21.15-14.45 19.58-15.23 18-16 16.13-16.3 14.25-16.6 12.4-16.6L12.4-16.6 10.65-16.6 10.65-18.75 12.8-18.75Q16.05-18.75 17.75-19.65 19.45-20.55 20.1-22.03 20.75-23.5 20.75-25.1L20.75-25.1Q20.75-27.7 19.58-29.13 18.4-30.55 16.68-31.13 14.95-31.7 13.3-31.7L13.3-31.7Q12.65-31.7 12.03-31.63 11.4-31.55 10.55-31.3L10.55-31.3ZM44.45 0.45L44.45 0.45Q41.05 0.45 38.5-1.03 35.95-2.5 34.55-5.18 33.15-7.85 33.15-11.45L33.15-11.45Q33.15-14.85 34.6-17.55 36.05-20.25 38.6-21.8 41.15-23.35 44.45-23.35L44.45-23.35Q48-23.35 50.52-21.85 53.05-20.35 54.4-17.68 55.75-15 55.75-11.45L55.75-11.45Q55.75-8.05 54.32-5.35 52.9-2.65 50.37-1.1 47.85 0.45 44.45 0.45ZM44.85-1.95L44.85-1.95Q47.85-1.95 49.3-4.42 50.75-6.9 50.75-10.85L50.75-10.85Q50.75-13.95 49.82-16.23 48.9-18.5 47.35-19.73 45.8-20.95 43.95-20.95L43.95-20.95Q41.05-20.95 39.62-18.6 38.2-16.25 38.2-12.5L38.2-12.5Q38.2-9.15 39.02-6.78 39.85-4.4 41.35-3.18 42.85-1.95 44.85-1.95ZM71.05 0.45L71.05 0.45Q67.65 0.45 65.09-1.03 62.55-2.5 61.15-5.18 59.75-7.85 59.75-11.45L59.75-11.45Q59.75-14.85 61.2-17.55 62.65-20.25 65.2-21.8 67.75-23.35 71.05-23.35L71.05-23.35Q74.59-23.35 77.12-21.85 79.65-20.35 81-17.68 82.34-15 82.34-11.45L82.34-11.45Q82.34-8.05 80.92-5.35 79.5-2.65 76.97-1.1 74.45 0.45 71.05 0.45ZM71.45-1.95L71.45-1.95Q74.45-1.95 75.9-4.42 77.34-6.9 77.34-10.85L77.34-10.85Q77.34-13.95 76.42-16.23 75.5-18.5 73.95-19.73 72.4-20.95 70.55-20.95L70.55-20.95Q67.65-20.95 66.22-18.6 64.8-16.25 64.8-12.5L64.8-12.5Q64.8-9.15 65.62-6.78 66.45-4.4 67.95-3.18 69.45-1.95 71.45-1.95ZM86.14 0.15L86.14 0.15Q86.14-0.35 86.19-0.93 86.24-1.5 86.39-2L86.39-2Q88.39-2 89.12-2.93 89.84-3.85 89.84-6.35L89.84-6.35 89.84-28.75Q89.84-29.95 89.62-30.73 89.39-31.5 88.59-31.9 87.79-32.3 86.09-32.3L86.09-32.3Q86.09-32.85 86.19-33.3 86.29-33.75 86.54-34.15L86.54-34.15Q87.29-34.15 88.67-34.4 90.04-34.65 91.34-35.05 92.64-35.45 93.24-35.85L93.24-35.85Q93.69-35.7 94.02-35.25 94.34-34.8 94.34-33.85L94.34-33.85 94.34-6.35Q94.34-3.85 95.02-2.93 95.69-2 97.29-2L97.29-2Q97.44-1.5 97.49-0.85 97.54-0.2 97.54 0.15L97.54 0.15Q96.24 0.05 94.79 0.03 93.34 0 91.89 0L91.89 0Q90.94 0 89.92 0.03 88.89 0.05 87.94 0.08 86.99 0.1 86.14 0.15ZM103.94 0.45L103.94 0.45Q102.79-1.3 100.94-3.65 99.09-6 97.04-8.35 94.99-10.7 93.14-12.45L93.14-12.45 93.09-11.65 98.04-16.15Q99.79-17.7 100.52-18.68 101.24-19.65 101.24-20.15L101.24-20.15Q101.24-20.55 100.87-20.75 100.49-20.95 99.79-20.95L99.79-20.95Q99.64-21.45 99.57-21.95 99.49-22.45 99.49-23L99.49-23Q100.59-22.95 101.52-22.93 102.44-22.9 103.24-22.9 104.04-22.9 104.69-22.9L104.69-22.9Q105.54-22.9 106.79-22.93 108.04-22.95 109.39-23L109.39-23Q109.39-22.5 109.32-21.93 109.24-21.35 109.04-20.9L109.04-20.9Q108.09-20.9 107.17-20.6 106.24-20.3 105.22-19.65 104.19-19 102.94-17.85L102.94-17.85 97.44-12.85 97.34-14.45Q99.09-12.65 100.94-10.58 102.79-8.5 105.39-5.3L105.39-5.3Q106.39-4.1 107.12-3.45 107.84-2.8 108.64-2.53 109.44-2.25 110.59-2.15L110.59-2.15Q110.59-1.45 110.54-0.93 110.49-0.4 110.34 0L110.34 0Q109.14 0 108.09 0.05 107.04 0.1 106.04 0.18 105.04 0.25 103.94 0.45ZM127.34-2.25L127.64-2.25Q130.44-2.25 132.04-2.85 133.64-3.45 134.62-4.85 135.59-6.25 136.39-8.55L136.39-8.55Q137.14-8.35 137.64-8.08 138.14-7.8 138.59-7.35L138.59-7.35Q138.04-5.65 137.67-3.65 137.29-1.65 137.04 0.1L137.04 0.1Q136.09 0.05 134.52 0.05 132.94 0.05 131.06 0.03 129.19 0 127.34 0L127.34 0Q125.94 0 124.12 0 122.29 0 120.42 0.03 118.54 0.05 116.94 0.08 115.34 0.1 114.39 0.15L114.39 0.15Q114.39-0.55 114.44-1.07 114.49-1.6 114.64-2L114.64-2Q115.99-2.1 116.74-2.5 117.49-2.9 117.81-3.93 118.14-4.95 118.14-6.9L118.14-6.9 118.14-27.45Q118.14-29.15 117.84-30.05 117.54-30.95 116.79-31.35 116.04-31.75 114.69-31.8L114.69-31.8Q114.54-32.2 114.49-32.77 114.44-33.35 114.44-33.95L114.44-33.95Q115.44-33.9 116.56-33.88 117.69-33.85 118.74-33.83 119.79-33.8 120.49-33.8L120.49-33.8Q121.59-33.8 122.59-33.83 123.59-33.85 124.56-33.88 125.54-33.9 126.54-33.95L126.54-33.95Q126.54-33.3 126.49-32.75 126.44-32.2 126.29-31.8L126.29-31.8Q124.99-31.75 124.22-31.35 123.44-30.95 123.14-30 122.84-29.05 122.84-27.3L122.84-27.3 122.84-6.9Q122.84-5.05 123.19-4.05 123.54-3.05 124.52-2.65 125.49-2.25 127.34-2.25L127.34-2.25ZM152.19 0.45L152.19 0.45Q148.64 0.45 146.29-1.15 143.94-2.75 142.76-5.48 141.59-8.2 141.59-11.45L141.59-11.45Q141.59-14.65 142.84-17.35 144.09-20.05 146.41-21.7 148.74-23.35 151.94-23.35L151.94-23.35Q155.19-23.35 157.16-21.95 159.14-20.55 160.11-18.2 161.09-15.85 161.29-13L161.29-13Q161.09-12 160.54-11.3L160.54-11.3Q159.69-11.3 157.99-11.3 156.29-11.3 154.14-11.28 151.99-11.25 149.74-11.18 147.49-11.1 145.49-11L145.49-11 145.49-13.55 156.09-13.55Q156.09-16.85 154.89-18.9 153.69-20.95 151.49-20.95L151.49-20.95Q150.29-20.95 149.14-20.23 147.99-19.5 147.24-17.68 146.49-15.85 146.49-12.5L146.49-12.5Q146.49-10.05 147.11-7.73 147.74-5.4 149.31-3.88 150.89-2.35 153.79-2.35L153.79-2.35Q155.44-2.35 157.04-3.1 158.64-3.85 159.89-5.25L159.89-5.25Q160.29-5.05 160.66-4.58 161.04-4.1 161.09-3.7L161.09-3.7Q159.39-1.45 157.16-0.5 154.94 0.45 152.19 0.45ZM173.34-21.15L168.84-10.7 168.84-16.25Q168.84-17.45 168.59-18.2 168.34-18.95 167.54-19.35 166.74-19.75 165.09-19.8L165.09-19.8Q165.09-20.35 165.19-20.8 165.29-21.25 165.54-21.65L165.54-21.65Q167.09-21.75 169.09-22.25 171.09-22.75 172.24-23.35L172.24-23.35Q172.69-23.2 173.01-22.73 173.34-22.25 173.34-21.15L173.34-21.15ZM188.14-14.95L188.14-6.35Q188.14-3.75 188.86-2.88 189.59-2 191.09-2L191.09-2Q191.24-1.55 191.29-1.05 191.34-0.55 191.34 0.15L191.34 0.15Q190.24 0.05 188.84 0.03 187.44 0 185.89 0L185.89 0Q184.89 0 183.79 0.03 182.69 0.05 181.71 0.08 180.74 0.1 179.94 0.15L179.94 0.15Q179.94-0.55 179.99-1.07 180.04-1.6 180.19-2L180.19-2Q181.99-2 182.81-2.93 183.64-3.85 183.64-6.35L183.64-6.35 183.64-13.95Q183.64-17.5 182.34-18.78 181.04-20.05 178.99-20.05L178.99-20.05Q177.69-20.05 176.39-19.23 175.09-18.4 174.21-16.57 173.34-14.75 173.34-11.7L173.34-11.7 173.34-6.35Q173.34-3.85 174.09-2.93 174.84-2 176.79-2L176.79-2Q176.94-1.55 176.99-1.05 177.04-0.55 177.04 0.15L177.04 0.15Q176.34 0.1 175.34 0.08 174.34 0.05 173.24 0.03 172.14 0 171.09 0L171.09 0Q170.09 0 168.99 0.03 167.89 0.05 166.89 0.08 165.89 0.1 165.14 0.15L165.14 0.15Q165.14-0.55 165.19-1.07 165.24-1.6 165.39-2L165.39-2Q167.34-2 168.09-2.93 168.84-3.85 168.84-6.35L168.84-6.35 168.84-16.25 173.34-21.15Q173.34-20.55 173.29-19.8 173.24-19.05 172.99-18.2L172.99-18.2Q173.14-18.45 173.29-18.78 173.44-19.1 173.74-19.5L173.74-19.5Q174.59-20.65 176.46-21.88 178.34-23.1 180.99-23.1L180.99-23.1Q182.89-23.1 184.51-22.33 186.14-21.55 187.14-19.78 188.14-18 188.14-14.95L188.14-14.95ZM207.58-23.35L207.58-23.35Q209.03-23.35 210.11-23.1 211.18-22.85 212.43-22.45L212.43-22.45 212.43-18.6Q211.43-19.65 210.26-20.35 209.08-21.05 207.33-21.05L207.33-21.05Q206.28-21.05 205.06-20.63 203.83-20.2 202.68-19.15 201.53-18.1 200.81-16.2 200.08-14.3 200.08-11.3L200.08-11.3Q200.08-8.1 201.03-6.23 201.98-4.35 203.28-3.53 204.58-2.7 205.68-2.7L205.68-2.7Q207.18-2.7 208.56-3.63 209.93-4.55 210.83-6.65 211.73-8.75 211.73-12.25L211.73-12.25 213.18-6.95Q212.53-5.35 212.06-4.5 211.58-3.65 211.33-3.25L211.33-3.25Q210.88-2.5 209.91-1.65 208.93-0.8 207.56-0.18 206.18 0.45 204.48 0.45L204.48 0.45Q201.58 0.45 199.48-0.73 197.38-1.9 196.26-4.35 195.13-6.8 195.13-10.65L195.13-10.65Q195.13-14.15 196.68-17.03 198.23-19.9 201.03-21.63 203.83-23.35 207.58-23.35ZM212.78-6.8L216.23-6.8Q216.23-5.65 216.43-4.88 216.63-4.1 217.31-3.75 217.98-3.4 219.33-3.4L219.33-3.4Q219.33-2.9 219.28-2.27 219.23-1.65 219.03-1.1L219.03-1.1Q217.78-1.05 216.13-0.63 214.48-0.2 213.33 0.45L213.33 0.45Q212.83 0.2 212.46-0.28 212.08-0.75 212.08-2.45L212.08-2.45Q212.08-3.45 212.26-4.23 212.43-5 212.78-6.8L212.78-6.8ZM211.73-28.75L216.23-28.75 216.23-6.35 211.73-6.35 211.73-28.75ZM215.13-35.85L215.13-35.85Q215.58-35.7 215.91-35.25 216.23-34.8 216.23-33.85L216.23-33.85 216.23-26.9 211.73-26.9 211.73-28.75Q211.73-29.95 211.51-30.73 211.28-31.5 210.48-31.9 209.68-32.3 207.98-32.3L207.98-32.3Q207.98-32.85 208.08-33.3 208.18-33.75 208.43-34.15L208.43-34.15Q209.18-34.15 210.53-34.4 211.88-34.65 213.21-35.05 214.53-35.45 215.13-35.85Z" opacity="1" transform="matrix(1,0,0,1,0,0)" fill="#3e373d" class="wordmark-text-0" data-fill-palette-color="primary" id="text-0"></path></svg></g></svg></g></svg></g></svg></g><g><svg viewBox="0 0 68.72048129300394 91.62730839067191" height="91.62730839067191" width="68.72048129300394"><g><svg xmlns="http://www.w3.org/2000/svg" xmlns:xlink="http://www.w3.org/1999/xlink" version="1.1" x="0" y="0" viewBox="12 0 72 96" enable-background="new 0 0 96 96" xml:space="preserve" height="91.62730839067191" width="68.72048129300394" class="icon-icon-0" data-fill-palette-color="accent" id="icon-0"><path d="M72 12h-8v30c0 0.78-0.46 1.5-1.172 1.82C62.568 43.936 62.279 44 62 44c-0.477 0-0.943-0.172-1.313-0.492L54 37.656l-6.68 5.852c-0.588 0.512-1.432 0.636-2.144 0.312C44.46 43.5 44 42.784 44 42V12H12.244C12.112 12.624 12 13.256 12 13.908v70.508C12 90.809 17.2 96 23.588 96h46.528c0.64 0 1.264-0.1 1.884-0.236V12z" fill="#c9a181" data-fill-palette-color="accent"></path><path d="M55.32 33.5L60 37.592V12H48v25.592l4.684-4.092C53.436 32.836 54.568 32.836 55.32 33.5z" fill="#c9a181" data-fill-palette-color="accent"></path><path d="M82 0H26.252c-0.392 0-0.768 0.108-1.092 0.324l-8.988 5.868C15.408 6.696 14.76 7.32 14.188 8H74c1.1 0 2 0.9 2 2v83.828c0.68-0.572 1.3-1.208 1.805-1.969l5.859-8.883C83.884 82.648 84 82.264 84 81.876V2C84 0.9 83.104 0 82 0z" fill="#c9a181" data-fill-palette-color="accent"></path></svg></g></svg></g></svg></g><defs></defs></svg><rect width="395.52" height="72.26069498178956" fill="none" stroke="none" visibility="hidden"></rect></g></svg></g></svg>