<svg xmlns="http://www.w3.org/2000/svg" version="1.1" xmlns:xlink="http://www.w3.org/1999/xlink" xmlns:svgjs="http://svgjs.dev/svgjs" width="2000" height="368" viewBox="0 0 2000 368"><g transform="matrix(1,0,0,1,-1.2121212121212466,-0.26172849819036514)"><svg viewBox="0 0 396 73" data-background-color="#ffffff" preserveAspectRatio="xMidYMid meet" height="368" width="2000" xmlns="http://www.w3.org/2000/svg" xmlns:xlink="http://www.w3.org/1999/xlink"><g id="tight-bounds" transform="matrix(1,0,0,1,0.2400000000000091,0.05191896839102128)"><svg viewBox="0 0 395.52 72.89616206321799" height="72.89616206321799" width="395.52"><g><svg viewBox="0 0 502.7082863095877 92.65145810413202" height="72.89616206321799" width="395.52"><g><rect width="6.045878515293335" height="80.44989126263272" x="85.31550068619674" y="6.10078342074965" fill="#3e373d" opacity="1" stroke-width="0" stroke="transparent" fill-opacity="1" class="rect-qz-0" data-fill-palette-color="primary" rx="1%" id="qz-0" data-palette-color="#3e373d"></rect></g><g transform="matrix(1,0,0,1,107.18828630958782,12.804941025969043)"><svg viewBox="0 0 395.5199999999999 67.04157605219393" height="67.04157605219393" width="395.5199999999999"><g id="textblocktransform"><svg viewBox="0 0 395.5199999999999 67.04157605219393" height="67.04157605219393" width="395.5199999999999" id="textblock"><g><svg viewBox="0 0 395.5199999999999 67.04157605219393" height="67.04157605219393" width="395.5199999999999"><g transform="matrix(1,0,0,1,0,0)"><svg width="395.5199999999999" viewBox="1.22 -31.62 190.83 32.35" height="67.04157605219393" data-palette-color="#3e373d"><path d="M13.87 0Q18.51 0 21.41-1.31 24.32-2.61 25.59-4.7 26.86-6.79 26.86-9.28L26.86-9.28Q26.86-10.96 25.98-12.55 25.1-14.14 23.39-15.21 21.68-16.28 19.29-16.41L19.29-16.41 19.29-16.58Q21.92-17.53 23.12-19.47 24.32-21.41 24.32-23.61L24.32-23.61Q24.32-25.54 23.18-27.15 22.05-28.76 19.65-29.72 17.26-30.69 13.65-30.69L13.65-30.69Q10.79-30.69 8.09-30.4 5.4-30.1 1.64-29.57L1.64-29.57 1.39-27.69 5.57-26.95 5.57-2.95 1.49-1.81 1.22 0 13.87 0ZM10.25-28.42Q11.4-28.59 12.21-28.59L12.21-28.59Q16.26-28.59 17.99-26.73 19.73-24.88 19.73-22.19L19.73-22.19Q19.73-20.12 18.93-18.79 18.14-17.46 16.55-16.8L16.55-16.8 10.25-16.8 10.25-28.42ZM10.25-14.77L15.7-14.77Q17.72-14.77 19.17-13.85 20.61-12.94 21.34-11.5 22.07-10.06 22.07-8.47L22.07-8.47Q22.07-6.86 21.33-5.46 20.58-4.05 19.12-3.2 17.65-2.34 15.63-2.34L15.63-2.34 10.25-2.34 10.25-14.77ZM38.82 0.66Q41.65 0.66 43.99-0.78 46.34-2.22 47.69-4.83 49.05-7.45 49.05-10.77L49.05-10.77Q49.05-14.11 47.89-16.66 46.73-19.21 44.54-20.63 42.36-22.05 39.4-22.05L39.4-22.05Q36.62-22.05 34.19-20.65 31.76-19.26 30.27-16.61 28.78-13.96 28.78-10.4L28.78-10.4Q28.78-7.23 29.97-4.72 31.15-2.22 33.41-0.78 35.67 0.66 38.82 0.66L38.82 0.66ZM38.38-19.48Q40.55-19.48 41.98-17.88 43.41-16.28 44.05-13.84 44.7-11.4 44.7-8.76L44.7-8.76Q44.7-6.96 44.14-5.35 43.58-3.74 42.43-2.72 41.28-1.71 39.65-1.71L39.65-1.71Q37.38-1.71 35.91-3.2 34.45-4.69 33.79-7.06 33.13-9.42 33.13-12.13L33.13-12.13Q33.13-14.14 33.69-15.81 34.25-17.48 35.43-18.48 36.62-19.48 38.38-19.48L38.38-19.48ZM61.62 0.66Q64.45 0.66 66.79-0.78 69.14-2.22 70.49-4.83 71.85-7.45 71.85-10.77L71.85-10.77Q71.85-14.11 70.69-16.66 69.53-19.21 67.34-20.63 65.16-22.05 62.2-22.05L62.2-22.05Q59.42-22.05 56.99-20.65 54.56-19.26 53.07-16.61 51.58-13.96 51.58-10.4L51.58-10.4Q51.58-7.23 52.77-4.72 53.95-2.22 56.21-0.78 58.47 0.66 61.62 0.66L61.62 0.66ZM61.18-19.48Q63.35-19.48 64.78-17.88 66.21-16.28 66.85-13.84 67.5-11.4 67.5-8.76L67.5-8.76Q67.5-6.96 66.94-5.35 66.38-3.74 65.23-2.72 64.08-1.71 62.45-1.71L62.45-1.71Q60.18-1.71 58.71-3.2 57.25-4.69 56.59-7.06 55.93-9.42 55.93-12.13L55.93-12.13Q55.93-14.14 56.49-15.81 57.05-17.48 58.23-18.48 59.42-19.48 61.18-19.48L61.18-19.48ZM73.36 0L85.03 0 85.32-1.95 81.44-2.83 81.44-30.88 80.83-31.49 73.8-30.93 73.5-29.08 77.36-27.78 77.36-2.83 73.63-1.93 73.36 0ZM84.59-7.01Q86.81-4 88.15-2.49 89.49-0.98 90.78-0.26 92.06 0.46 93.64 0.46L93.64 0.46Q94.82 0.46 96.55 0L96.55 0 96.82-1.88 95.84-2.03Q94.62-2.17 93.68-2.78 92.74-3.39 91.9-4.35 91.06-5.3 89.59-7.23L89.59-7.23Q88.4-8.84 87.91-9.42L87.91-9.42 85.98-11.89 91.76-18.97 95.4-20 95.74-21.8 85.34-21.8 85.1-19.95 88.35-18.97 82.02-11.04 82.02-10.55 84.59-7.01ZM98.26 0L122.43 0 123.33-8.08 121.25-8.4 118.06-2.34 107.27-2.34 107.27-27.37 111.44-28.52 111.68-30.37 98.26-30.37 97.94-28.52 102.53-27.27 102.53-2.95 98.48-1.81 98.26 0ZM133.31 0.73Q135.71 0.73 137.79-0.13 139.88-1 141.34-2.54L141.34-2.54 140.83-3.83Q139.64-3.2 138.73-2.91 137.83-2.61 137.15-2.55 136.46-2.49 135.29-2.49L135.29-2.49Q133.14-2.49 131.64-3.72 130.14-4.96 129.36-6.88 128.58-8.81 128.48-10.86L128.48-10.86 140.3-11.01Q140.44-11.65 140.56-12.63 140.69-13.62 140.69-14.18L140.69-14.18Q140.69-16.67 139.82-18.42 138.95-20.17 137.46-21.06 135.97-21.95 134.17-21.95L134.17-21.95Q131.73-21.95 129.41-20.56 127.09-19.17 125.61-16.55 124.13-13.94 124.13-10.45L124.13-10.45Q124.13-6.91 125.43-4.37 126.72-1.83 128.83-0.55 130.94 0.73 133.31 0.73L133.31 0.73ZM132.97-19.56Q136.34-19.56 136.34-15.01L136.34-15.01Q136.34-14.65 136.3-14.12 136.27-13.6 136.19-13.33L136.19-13.33 128.53-12.77Q128.65-15.01 129.32-16.54 129.99-18.07 130.97-18.81 131.95-19.56 132.97-19.56L132.97-19.56ZM154.65 0L154.99-1.93 151.35-2.78 151.35-16.48Q152.26-17.48 153.53-18.03 154.79-18.58 156.16-18.58L156.16-18.58Q158.09-18.58 159.25-17.47 160.41-16.36 160.41-14.09L160.41-14.09 160.41-2.78 157.04-1.78 156.8 0 167.76 0 168-1.93 164.49-2.78 164.49-15.04Q164.49-18.33 162.97-20.14 161.46-21.95 158.6-21.95L158.6-21.95Q156.45-21.95 154.55-20.85 152.65-19.75 151.25-18.09L151.25-18.09 151.01-18.09 151.43-21.22 151.01-21.68 143.74-20.73 143.49-18.87 147.25-17.6 147.25-2.78 143.56-1.78 143.32 0 154.65 0ZM177.57 0.51Q179.89 0.51 181.5-0.51 183.11-1.54 184.33-3.2L184.33-3.2 184.55-3.2 184.55-3.03Q184.55-1.44 185.49-0.44 186.43 0.56 188.19 0.56L188.19 0.56Q189.29 0.56 189.98 0.48 190.68 0.39 191.78 0.1L191.78 0.1 192.05-1.93 190.95-2.17Q189.9-2.42 189.4-2.62 188.9-2.83 188.59-3.43 188.29-4.03 188.29-5.25L188.29-5.25 188.29-31.03 187.78-31.62 180.99-31.03 180.65-29.2 184.36-27.86 184.36-24.02 184.65-20.9 184.48-20.9Q183.87-21.34 182.67-21.66 181.48-21.97 180.28-21.97L180.28-21.97Q177.74-21.97 175.26-20.36 172.79-18.75 171.2-15.94 169.61-13.13 169.61-9.74L169.61-9.74Q169.61-6.49 170.67-4.17 171.74-1.86 173.55-0.67 175.37 0.51 177.57 0.51L177.57 0.51ZM179.11-19.58Q180.4-19.58 181.9-18.68 183.41-17.77 184.33-16.26L184.33-16.26 184.33-4.81Q183.63-3.98 182.17-3.27 180.72-2.56 179.3-2.56L179.3-2.56Q177.74-2.56 176.52-3.55 175.3-4.54 174.6-6.51 173.91-8.47 173.91-11.28L173.91-11.28Q173.91-15.06 175.15-17.32 176.4-19.58 179.11-19.58L179.11-19.58Z" opacity="1" transform="matrix(1,0,0,1,0,0)" fill="#3e373d" class="wordmark-text-0" data-fill-palette-color="primary" id="text-0"></path></svg></g></svg></g></svg></g></svg></g><g><svg viewBox="0 0 69.48859357809901 92.65145810413202" height="92.65145810413202" width="69.48859357809901"><g><svg xmlns="http://www.w3.org/2000/svg" xmlns:xlink="http://www.w3.org/1999/xlink" version="1.1" x="0" y="0" viewBox="12 0 72 96" enable-background="new 0 0 96 96" xml:space="preserve" height="92.65145810413202" width="69.48859357809901" class="icon-icon-0" data-fill-palette-color="accent" id="icon-0"><path d="M72 12h-8v30c0 0.78-0.46 1.5-1.172 1.82C62.568 43.936 62.279 44 62 44c-0.477 0-0.943-0.172-1.313-0.492L54 37.656l-6.68 5.852c-0.588 0.512-1.432 0.636-2.144 0.312C44.46 43.5 44 42.784 44 42V12H12.244C12.112 12.624 12 13.256 12 13.908v70.508C12 90.809 17.2 96 23.588 96h46.528c0.64 0 1.264-0.1 1.884-0.236V12z" fill="#c9a181" data-fill-palette-color="accent"></path><path d="M55.32 33.5L60 37.592V12H48v25.592l4.684-4.092C53.436 32.836 54.568 32.836 55.32 33.5z" fill="#c9a181" data-fill-palette-color="accent"></path><path d="M82 0H26.252c-0.392 0-0.768 0.108-1.092 0.324l-8.988 5.868C15.408 6.696 14.76 7.32 14.188 8H74c1.1 0 2 0.9 2 2v83.828c0.68-0.572 1.3-1.208 1.805-1.969l5.859-8.883C83.884 82.648 84 82.264 84 81.876V2C84 0.9 83.104 0 82 0z" fill="#c9a181" data-fill-palette-color="accent"></path></svg></g></svg></g></svg></g><defs></defs></svg><rect width="395.52" height="72.89616206321799" fill="none" stroke="none" visibility="hidden"></rect></g></svg></g></svg>